<svg xmlns="http://www.w3.org/2000/svg" width="180" height="60" viewBox="0 0 180 60">
<line x1="0" y1="30" x2="20" y2="30" stroke="black" stroke-width="3"/>
<path d="M20 30 a8 8 0 0 1 16 0 a8 8 0 0 1 16 0 a8 8 0 0 1 16 0" stroke="black" stroke-width="3" fill="none"/>
<line x1="70" y1="10" x2="70" y2="50" stroke="black" stroke-width="2"/>
<line x1="78" y1="10" x2="78" y2="50" stroke="black" stroke-width="2"/>
<path d="M92 30 a8 8 0 0 1 16 0 a8 8 0 0 1 16 0 a8 8 0 0 1 16 0" stroke="black" stroke-width="3" fill="none"/>
<line x1="140" y1="30" x2="180" y2="30" stroke="black" stroke-width="3"/>
</svg>